<svg width="48" height="48" viewBox="0 0 48 48" fill="none" xmlns="http://www.w3.org/2000/svg">
<g clip-path="url(#clip0_101_10)">
<path d="M48.0005 24.2791C48.0005 37.38 37.3805 48 24.2795 48C11.1786 48 0.558594 37.38 0.558594 24.2791C0.558594 11.1781 11.1786 0.558142 24.2795 0.558142C37.3805 0.558142 48.0005 11.1781 48.0005 24.2791Z" fill="#FFCC4D"/>
<path d="M24.2795 28.4651C19.2242 28.4651 15.8697 27.8763 11.7214 27.0697C10.7739 26.887 8.93066 27.0697 8.93066 29.8604C8.93066 35.4418 15.3423 42.4186 24.2795 42.4186C33.2153 42.4186 39.6283 35.4418 39.6283 29.8604C39.6283 27.0697 37.7851 26.8856 36.8376 27.0697C32.6893 27.8763 29.3348 28.4651 24.2795 28.4651Z" fill="#664500"/>
<path d="M13.1162 17.3023C13.1162 17.3023 13.1162 14.5116 15.9069 14.5116C18.6976 14.5116 18.6976 17.3023 18.6976 17.3023V20.093C18.6976 20.093 18.6976 22.8837 15.9069 22.8837C13.1162 22.8837 13.1162 20.093 13.1162 20.093V17.3023Z" fill="#664500"/>
<path d="M29.8604 17.3023C29.8604 17.3023 29.8604 14.5116 32.651 14.5116C35.4417 14.5116 35.4417 17.3023 35.4417 17.3023V20.093C35.4417 20.093 35.4417 22.8837 32.651 22.8837C29.8604 22.8837 29.8604 20.093 29.8604 20.093V17.3023Z" fill="#664500"/>
<path d="M11.7207 29.8605C11.7207 29.8605 15.9067 31.2558 24.2788 31.2558C32.6509 31.2558 36.837 29.8605 36.837 29.8605C36.837 29.8605 34.0463 35.4419 24.2788 35.4419C14.5114 35.4419 11.7207 29.8605 11.7207 29.8605Z" fill="white"/>
</g>
<defs>
<clipPath id="clip0_101_10">
<rect width="48" height="48" fill="white"/>
</clipPath>
</defs>
</svg>
