<svg width="48" height="48" viewBox="0 0 48 48" fill="none" xmlns="http://www.w3.org/2000/svg">
<g clip-path="url(#clip0_101_27)">
<path d="M47.5 24.25C47.5 37.367 36.867 48 23.75 48C10.6344 48 0 37.367 0 24.25C0 11.1344 10.6344 0.5 23.75 0.5C36.867 0.5 47.5 11.1344 47.5 24.25Z" fill="#FFCC4D"/>
<path d="M18.1621 22.1544C18.1621 24.8563 16.5987 27.0441 14.6694 27.0441C12.7401 27.0441 11.1768 24.8563 11.1768 22.1544C11.1768 19.4538 12.7401 17.2647 14.6694 17.2647C16.5987 17.2647 18.1621 19.4538 18.1621 22.1544Z" fill="#664500"/>
<path d="M36.3232 22.1544C36.3232 24.8563 34.7599 27.0441 32.8305 27.0441C30.9012 27.0441 29.3379 24.8563 29.3379 22.1544C29.3379 19.4538 30.9012 17.2647 32.8305 17.2647C34.7599 17.2647 36.3232 19.4538 36.3232 22.1544Z" fill="#664500"/>
<path d="M15.3672 38.2206C18.1613 31.2353 33.529 31.2353 33.529 34.0294C33.529 35.4265 22.3525 32.6323 15.3672 38.2206Z" fill="#664500"/>
</g>
<defs>
<clipPath id="clip0_101_27">
<rect width="48" height="48" fill="white"/>
</clipPath>
</defs>
</svg>
