<svg width="48" height="48" viewBox="0 0 48 48" fill="none" xmlns="http://www.w3.org/2000/svg">
<g clip-path="url(#clip0_101_3)">
<path d="M48 24C48 37.2547 37.2547 48 24 48C10.7453 48 0 37.2547 0 24C0 10.7453 10.7453 0 24 0C37.2547 0 48 10.7453 48 24Z" fill="#FFCC4D"/>
<path d="M29.3337 35.9999C29.3337 39.6839 26.9457 39.9999 24.0004 39.9999C21.0537 39.9999 18.6671 39.6839 18.6671 35.9999C18.6671 32.3186 21.0537 27.9999 24.0004 27.9999C26.9457 27.9999 29.3337 32.3186 29.3337 35.9999ZM40.0004 19.9999C39.8351 19.9999 39.6671 19.9693 39.5057 19.9039C32.5337 17.1159 29.6764 12.9159 29.5577 12.7386C29.1484 12.1253 29.3137 11.2973 29.9271 10.8893C30.5391 10.4813 31.3631 10.6439 31.7737 11.2546C31.7991 11.2906 34.3471 14.9679 40.4951 17.4266C41.1791 17.7013 41.5124 18.4759 41.2391 19.1599C41.0297 19.6826 40.5284 19.9999 40.0004 19.9999ZM8.00039 19.9999C7.47106 19.9999 6.97106 19.6826 6.76173 19.1613C6.48839 18.4773 6.82039 17.7013 7.50439 17.4279C13.6537 14.9693 16.2017 11.2919 16.2271 11.2559C16.6377 10.6479 17.4657 10.4866 18.0764 10.8959C18.6857 11.3066 18.8511 12.1293 18.4431 12.7399C18.3244 12.9173 15.4671 17.1173 8.49639 19.9053C8.33373 19.9693 8.16573 19.9999 8.00039 19.9999Z" fill="#664500"/>
<path d="M32.0003 21.3334H37.3337V46.6667L32.0003 46.6054V21.3334ZM10.667 46.6667L16.0003 46.6054V21.3334H10.667V46.6667Z" fill="#5DADEC"/>
<path d="M19.9985 24C19.7985 24 19.5945 23.9546 19.4038 23.86C14.7211 21.5186 9.97713 23.836 9.93046 23.86C9.27046 24.192 8.47046 23.9213 8.14113 23.264C7.81179 22.6053 8.07846 21.804 8.73713 21.4746C8.97979 21.3546 14.7345 18.5453 20.5971 21.4746C21.2558 21.804 21.5225 22.6053 21.1931 23.264C20.9585 23.7306 20.4878 24 19.9985 24ZM38.6651 24C38.4651 24 38.2611 23.9546 38.0705 23.86C33.3865 21.5186 28.6438 23.836 28.5971 23.86C27.9385 24.1906 27.1385 23.9226 26.8078 23.264C26.4785 22.6053 26.7451 21.804 27.4038 21.4746C27.6465 21.3546 33.4051 18.5466 39.2638 21.4746C39.9225 21.804 40.1891 22.6053 39.8598 23.264C39.6251 23.7306 39.1545 24 38.6651 24Z" fill="#664500"/>
<path d="M24 48C37.2548 48 48 46.8061 48 45.3333C48 43.8605 37.2548 42.6666 24 42.6666C10.7452 42.6666 0 43.8605 0 45.3333C0 46.8061 10.7452 48 24 48Z" fill="#5DADEC"/>
<path d="M24 38.6667C26.2091 38.6667 28 37.4728 28 36C28 34.5273 26.2091 33.3334 24 33.3334C21.7909 33.3334 20 34.5273 20 36C20 37.4728 21.7909 38.6667 24 38.6667Z" fill="#E75A70"/>
</g>
<defs>
<clipPath id="clip0_101_3">
<rect width="48" height="48" fill="white"/>
</clipPath>
</defs>
</svg>
