<svg width="48" height="48" viewBox="0 0 48 48" fill="none" xmlns="http://www.w3.org/2000/svg">
<g clip-path="url(#clip0_101_39)">
<path d="M48 24C48 37.2547 37.2547 48 24 48C10.7453 48 0 37.2547 0 24C0 10.7453 10.7453 0 24 0C37.2547 0 48 10.7453 48 24Z" fill="#FFCC4D"/>
<path d="M23.9997 28C19.169 28 15.9637 27.4374 11.9997 26.6667C11.0943 26.492 9.33301 26.6667 9.33301 29.3334C9.33301 34.6667 15.4597 41.3334 23.9997 41.3334C32.5383 41.3334 38.6663 34.6667 38.6663 29.3334C38.6663 26.6667 36.905 26.4907 35.9997 26.6667C32.0357 27.4374 28.8303 28 23.9997 28Z" fill="#664500"/>
<path d="M12 29.3334C12 29.3334 16 30.6667 24 30.6667C32 30.6667 36 29.3334 36 29.3334C36 29.3334 33.3333 34.6667 24 34.6667C14.6667 34.6667 12 29.3334 12 29.3334Z" fill="white"/>
<path d="M20.909 5.88404L14.853 6.95204L11.733 1.28137C11.389 0.656039 10.6824 0.321373 9.9837 0.444039C9.28103 0.568039 8.73436 1.12537 8.62503 1.82937L7.6317 8.22537L1.5757 9.29337C0.862365 9.41871 0.311699 9.99337 0.214365 10.712C0.117032 11.4307 0.495699 12.1294 1.1517 12.4414L6.57836 15.0174L5.58103 21.4334C5.47036 22.148 5.83303 22.852 6.47837 23.1787C6.71703 23.2987 6.97303 23.356 7.2277 23.356C7.6637 23.356 8.09436 23.1854 8.4157 22.86L13.0984 18.112L19.1224 20.972C19.7757 21.2814 20.5544 21.136 21.0504 20.6094C21.5464 20.0827 21.645 19.2974 21.297 18.664L18.1664 12.9734L22.3864 8.69604C22.8957 8.18004 23.0117 7.39337 22.6757 6.75071C22.337 6.10804 21.6184 5.76004 20.909 5.88404ZM27.0904 5.88404L33.1464 6.95204L36.2664 1.28137C36.6104 0.656039 37.317 0.321373 38.0157 0.444039C38.717 0.568039 39.2637 1.12537 39.373 1.82937L40.3664 8.22537L46.4224 9.29337C47.137 9.41871 47.6877 9.99204 47.7837 10.7107C47.8797 11.4294 47.5024 12.128 46.8464 12.44L41.4197 15.016L42.417 21.432C42.5277 22.1467 42.165 22.8507 41.5197 23.1774C41.281 23.2974 41.025 23.3547 40.7704 23.3547C40.3344 23.3547 39.9037 23.184 39.5824 22.8587L34.8997 18.1107L28.8757 20.9707C28.2224 21.28 27.4437 21.1347 26.9477 20.608C26.4517 20.0814 26.353 19.296 26.701 18.6627L29.8317 12.9734L25.6117 8.69604C25.1024 8.18004 24.9864 7.39337 25.3224 6.75071C25.6624 6.10804 26.381 5.76004 27.0904 5.88404Z" fill="#E95F28"/>
</g>
<defs>
<clipPath id="clip0_101_39">
<rect width="48" height="48" fill="white"/>
</clipPath>
</defs>
</svg>
